# xmcd
#
# Track frame offsets:
#   150
#   27129
#   47150
#   71988
#   82079
#   88752
#   100911
#   116835
#   128918
#   145769
#   159059
#   163374
#   174181
#   185615
#   196409
#
# Disc length: 2857 seconds
#
# Revision: 0
# Processed by: cddbd v1.5.2PL0 Copyright (c) Steve Scherf et al.
# Submitted via: GXTranscoder 2.0.1939
#
DISCID=d10b270f
DTITLE=Jack London - Der Ruf der Wildnis
DYEAR=1900
DGENRE=Blues
TTITLE0=Das wilde Tier
TTITLE1=Später sammelten sich die neuen Hunde
TTITLE2=Als sie endlich ...
TTITLE3=In einer Nacht
TTITLE4=In Dorsen
TTITLE5=Sieben Tage nach ihrer Ankunft
TTITLE6=An der Mündung des Takera Flusses
TTITLE7=Spitz war ein erfahrener Kämpfer
TTITLE8=Der Sieger
TTITLE9=In Buck steckten nicht nur zwei Teufel
TTITLE10=Es war eine Rekordfahrt
TTITLE11=Ein schottisches Halbblut
TTITLE12=Wenn er manchmal da so kauerte
TTITLE13=Die Fahrt mit dem Postschlitten
TTITLE14=Als man die Casyou Bay erreichte
EXTD=
EXTT0=
EXTT1=
EXTT2=
EXTT3=
EXTT4=
EXTT5=
EXTT6=
EXTT7=
EXTT8=
EXTT9=
EXTT10=
EXTT11=
EXTT12=
EXTT13=
EXTT14=
PLAYORDER=
